<svg width="135" height="119" viewBox="0 0 135 119" fill="none" xmlns="http://www.w3.org/2000/svg">
<path d="M113 56C116 63.5 117.916 79.8049 109 93C96.5 111.5 80 113 68.5 113" stroke="white" stroke-width="2" stroke-linecap="round" stroke-linejoin="round"/>
<path d="M78 107.5L68 113L78 117.5" stroke="white" stroke-width="2" stroke-linecap="round" stroke-linejoin="round"/>
<path d="M134 32.5C134 40.8719 126.919 48.7428 114.796 54.58C102.744 60.3829 86.0231 64 67.5 64C48.9769 64 32.2565 60.3829 20.2041 54.58C8.08068 48.7428 1 40.8719 1 32.5C1 24.1281 8.08068 16.2572 20.2041 10.42C32.2565 4.61705 48.9769 1 67.5 1C86.0231 1 102.744 4.61705 114.796 10.42C126.919 16.2572 134 24.1281 134 32.5Z" stroke="white" stroke-width="2"/>
</svg>
